<mxfile host="Electron" modified="2024-06-07T14:18:23.677Z" agent="Mozilla/5.0 (X11; Linux x86_64) AppleWebKit/537.36 (KHTML, like Gecko) draw.io/24.5.1 Chrome/124.0.6367.207 Electron/30.0.6 Safari/537.36" etag="xE6Y72-On6dIDflZCiXN" version="24.5.1" type="device">
  <diagram name="Page-1" id="KZN-zyBD-0XipZeYQRDT">
    <mxGraphModel dx="574" dy="332" grid="1" gridSize="10" guides="1" tooltips="1" connect="1" arrows="1" fold="1" page="1" pageScale="1" pageWidth="500" pageHeight="200" math="0" shadow="0">
      <root>
        <mxCell id="0" />
        <mxCell id="1" parent="0" />
        <mxCell id="4ou6pQqf3mK2EiXASReZ-273" value="" style="group" vertex="1" connectable="0" parent="1">
          <mxGeometry x="9" y="78" width="482.6" height="44.45" as="geometry" />
        </mxCell>
        <mxCell id="9eh16xiQdjSHdPkHuFP6-378" value="" style="rounded=0;whiteSpace=wrap;html=1;strokeColor=#aaaaaa;fillColor=#bfbfbf;strokeWidth=1;container=0;part=1;movable=1;resizable=1;rotatable=1;deletable=1;editable=1;locked=0;connectable=1;" parent="4ou6pQqf3mK2EiXASReZ-273" vertex="1">
          <mxGeometry width="482.6" height="44.45" as="geometry" />
        </mxCell>
        <mxCell id="9eh16xiQdjSHdPkHuFP6-379" value="" style="rounded=0;whiteSpace=wrap;html=1;strokeColor=#aaaaaa;fillColor=#BFBFBF;strokeWidth=1;movable=1;resizable=1;rotatable=1;deletable=1;editable=1;locked=0;connectable=1;container=0;" parent="4ou6pQqf3mK2EiXASReZ-273" vertex="1">
          <mxGeometry x="18" width="446.6" height="44.45" as="geometry" />
        </mxCell>
        <mxCell id="jP2WbbBxQBNUkDRbYnSl-231" value="" style="rounded=0;whiteSpace=wrap;html=1;fillColor=#000000;fontColor=#ffffff;strokeColor=none;container=0;" parent="4ou6pQqf3mK2EiXASReZ-273" vertex="1">
          <mxGeometry x="7" y="19.224999999999994" width="4" height="6" as="geometry" />
        </mxCell>
        <mxCell id="jP2WbbBxQBNUkDRbYnSl-232" value="" style="ellipse;whiteSpace=wrap;html=1;aspect=fixed;strokeColor=none;fillColor=#000000;container=0;" parent="4ou6pQqf3mK2EiXASReZ-273" vertex="1">
          <mxGeometry x="8" y="19.224999999999994" width="6" height="6" as="geometry" />
        </mxCell>
        <mxCell id="jP2WbbBxQBNUkDRbYnSl-233" value="" style="ellipse;whiteSpace=wrap;html=1;aspect=fixed;strokeColor=none;fillColor=#000000;container=0;" parent="4ou6pQqf3mK2EiXASReZ-273" vertex="1">
          <mxGeometry x="4" y="19.224999999999994" width="6" height="6" as="geometry" />
        </mxCell>
        <mxCell id="wEfOMtyTKLQo5fzBktWI-2" value="" style="rounded=0;whiteSpace=wrap;html=1;fillColor=#000000;fontColor=#ffffff;strokeColor=none;container=0;" parent="4ou6pQqf3mK2EiXASReZ-273" vertex="1">
          <mxGeometry x="471.59625000000017" y="19.224999999999994" width="4" height="6" as="geometry" />
        </mxCell>
        <mxCell id="wEfOMtyTKLQo5fzBktWI-3" value="" style="ellipse;whiteSpace=wrap;html=1;aspect=fixed;strokeColor=none;fillColor=#000000;container=0;" parent="4ou6pQqf3mK2EiXASReZ-273" vertex="1">
          <mxGeometry x="472.59625000000017" y="19.224999999999994" width="6" height="6" as="geometry" />
        </mxCell>
        <mxCell id="wEfOMtyTKLQo5fzBktWI-4" value="" style="ellipse;whiteSpace=wrap;html=1;aspect=fixed;strokeColor=none;fillColor=#000000;container=0;" parent="4ou6pQqf3mK2EiXASReZ-273" vertex="1">
          <mxGeometry x="468.59625000000017" y="19.224999999999994" width="6" height="6" as="geometry" />
        </mxCell>
        <mxCell id="jP2WbbBxQBNUkDRbYnSl-206" value="" style="rounded=0;whiteSpace=wrap;html=1;strokeColor=#aaaaaa;fillColor=#bfbfbf;strokeWidth=1;movable=1;resizable=1;rotatable=1;deletable=1;editable=1;locked=0;connectable=1;container=0;" parent="4ou6pQqf3mK2EiXASReZ-273" vertex="1">
          <mxGeometry x="7.99625" width="10" height="44.45" as="geometry" />
        </mxCell>
        <mxCell id="wEfOMtyTKLQo5fzBktWI-5" value="" style="rounded=0;whiteSpace=wrap;html=1;strokeColor=#aaaaaa;fillColor=#bfbfbf;strokeWidth=1;movable=1;resizable=1;rotatable=1;deletable=1;editable=1;locked=0;connectable=1;container=0;" parent="4ou6pQqf3mK2EiXASReZ-273" vertex="1">
          <mxGeometry x="464.60000000000014" width="10" height="44.45" as="geometry" />
        </mxCell>
        <mxCell id="s0dWRtyi07ZF37cMcm2--266" value="" style="rounded=1;whiteSpace=wrap;html=1;strokeColor=#aaaaaa;fillColor=#BFBFBF;strokeWidth=0.2;movable=1;resizable=1;rotatable=1;deletable=1;editable=1;locked=0;connectable=1;container=0;align=center;verticalAlign=middle;fontFamily=Helvetica;fontSize=12;fontColor=default;arcSize=9;gradientColor=#AAAAAA;gradientDirection=north;" parent="4ou6pQqf3mK2EiXASReZ-273" vertex="1">
          <mxGeometry x="351" y="1.5" width="42" height="12" as="geometry" />
        </mxCell>
        <mxCell id="s0dWRtyi07ZF37cMcm2--295" value="" style="rounded=1;whiteSpace=wrap;html=1;strokeColor=none;fillColor=#000000;strokeWidth=1;movable=1;resizable=1;rotatable=1;deletable=1;editable=1;locked=0;connectable=1;container=0;" parent="4ou6pQqf3mK2EiXASReZ-273" vertex="1">
          <mxGeometry x="19" y="1.5" width="6.5" height="12" as="geometry" />
        </mxCell>
        <mxCell id="s0dWRtyi07ZF37cMcm2--64" value="" style="rounded=0;whiteSpace=wrap;html=1;strokeColor=none;fillColor=#000000;strokeWidth=1;movable=1;resizable=1;rotatable=1;deletable=1;editable=1;locked=0;connectable=1;container=0;" parent="4ou6pQqf3mK2EiXASReZ-273" vertex="1">
          <mxGeometry x="18.5" y="14.450000000000003" width="445.6" height="29.5" as="geometry" />
        </mxCell>
        <mxCell id="4ou6pQqf3mK2EiXASReZ-177" value="" style="group" vertex="1" connectable="0" parent="4ou6pQqf3mK2EiXASReZ-273">
          <mxGeometry x="20.3" y="16.450000000000003" width="442" height="26" as="geometry" />
        </mxCell>
        <mxCell id="4ou6pQqf3mK2EiXASReZ-107" value="" style="group" vertex="1" connectable="0" parent="4ou6pQqf3mK2EiXASReZ-177">
          <mxGeometry width="109" height="26" as="geometry" />
        </mxCell>
        <mxCell id="4ou6pQqf3mK2EiXASReZ-9" value="" style="rounded=0;whiteSpace=wrap;html=1;strokeColor=none;fillColor=#222222;strokeWidth=1;movable=1;resizable=1;rotatable=1;deletable=1;editable=1;locked=0;connectable=1;container=0;" vertex="1" parent="4ou6pQqf3mK2EiXASReZ-107">
          <mxGeometry width="109" height="26" as="geometry" />
        </mxCell>
        <mxCell id="4ou6pQqf3mK2EiXASReZ-10" value="" style="rounded=0;whiteSpace=wrap;html=1;strokeColor=#000000;fillColor=#222222;strokeWidth=1;movable=1;resizable=1;rotatable=1;deletable=1;editable=1;locked=0;connectable=1;container=0;perimeterSpacing=0;" vertex="1" parent="4ou6pQqf3mK2EiXASReZ-107">
          <mxGeometry x="2" y="2" width="100" height="22" as="geometry" />
        </mxCell>
        <mxCell id="4ou6pQqf3mK2EiXASReZ-12" value="" style="shape=loopLimit;whiteSpace=wrap;html=1;rounded=0;strokeWidth=1;align=center;verticalAlign=middle;fontFamily=Helvetica;fontSize=12;fontColor=default;resizable=1;fillColor=#111111;strokeColor=none;rotation=90;size=5;" vertex="1" parent="4ou6pQqf3mK2EiXASReZ-107">
          <mxGeometry x="1.75" y="3.25" width="21" height="19.5" as="geometry" />
        </mxCell>
        <mxCell id="4ou6pQqf3mK2EiXASReZ-13" value="" style="shape=loopLimit;whiteSpace=wrap;html=1;rounded=0;strokeWidth=0.1;align=center;verticalAlign=middle;fontFamily=Helvetica;fontSize=12;fontColor=default;resizable=1;fillColor=#111111;strokeColor=#000000;rotation=90;size=5;gradientColor=#222222;gradientDirection=north;" vertex="1" parent="4ou6pQqf3mK2EiXASReZ-107">
          <mxGeometry x="2.75" y="4.5" width="19" height="17" as="geometry" />
        </mxCell>
        <mxCell id="4ou6pQqf3mK2EiXASReZ-19" value="" style="whiteSpace=wrap;html=1;rounded=0;strokeWidth=1;align=center;verticalAlign=middle;fontFamily=Helvetica;fontSize=12;fontColor=default;resizable=1;fillColor=#010101;strokeColor=none;container=0;" vertex="1" parent="4ou6pQqf3mK2EiXASReZ-107">
          <mxGeometry x="89" y="2" width="6" height="22" as="geometry" />
        </mxCell>
        <mxCell id="4ou6pQqf3mK2EiXASReZ-20" value="" style="whiteSpace=wrap;html=1;rounded=0;strokeWidth=1;align=center;verticalAlign=middle;fontFamily=Helvetica;fontSize=12;fontColor=default;resizable=1;fillColor=#333333;strokeColor=none;container=0;" vertex="1" parent="4ou6pQqf3mK2EiXASReZ-107">
          <mxGeometry x="95" y="7.5" width="5" height="11" as="geometry" />
        </mxCell>
        <mxCell id="4ou6pQqf3mK2EiXASReZ-21" value="" style="triangle;whiteSpace=wrap;html=1;strokeColor=#111111;rounded=0;strokeWidth=0.1;align=center;verticalAlign=middle;fontFamily=Helvetica;fontSize=12;fontColor=default;resizable=1;fillColor=#333333;rotation=-180;container=0;" vertex="1" parent="4ou6pQqf3mK2EiXASReZ-107">
          <mxGeometry x="96" y="11.5" width="3" height="3" as="geometry" />
        </mxCell>
        <mxCell id="4ou6pQqf3mK2EiXASReZ-22" value="" style="whiteSpace=wrap;html=1;rounded=0;strokeWidth=1;align=center;verticalAlign=middle;fontFamily=Helvetica;fontSize=12;fontColor=default;resizable=1;fillColor=#333333;strokeColor=none;container=0;" vertex="1" parent="4ou6pQqf3mK2EiXASReZ-107">
          <mxGeometry x="22" y="7.5" width="67" height="11" as="geometry" />
        </mxCell>
        <mxCell id="4ou6pQqf3mK2EiXASReZ-14" value="" style="shape=hexagon;perimeter=hexagonPerimeter2;whiteSpace=wrap;html=1;fixedSize=1;rounded=0;strokeWidth=1;align=center;verticalAlign=middle;fontFamily=Helvetica;fontSize=12;fontColor=default;resizable=1;fillColor=#111111;strokeColor=none;size=5.568475452196374;container=0;" vertex="1" parent="4ou6pQqf3mK2EiXASReZ-107">
          <mxGeometry x="22" y="3" width="25" height="9" as="geometry" />
        </mxCell>
        <mxCell id="4ou6pQqf3mK2EiXASReZ-15" value="" style="shape=hexagon;perimeter=hexagonPerimeter2;whiteSpace=wrap;html=1;fixedSize=1;rounded=0;strokeWidth=1;align=center;verticalAlign=middle;fontFamily=Helvetica;fontSize=12;fontColor=default;resizable=1;fillColor=#111111;strokeColor=none;size=5.568475452196374;container=0;" vertex="1" parent="4ou6pQqf3mK2EiXASReZ-107">
          <mxGeometry x="22" y="14" width="25" height="9" as="geometry" />
        </mxCell>
        <mxCell id="4ou6pQqf3mK2EiXASReZ-16" value="" style="shape=hexagon;perimeter=hexagonPerimeter2;whiteSpace=wrap;html=1;fixedSize=1;rounded=0;strokeWidth=1;align=center;verticalAlign=middle;fontFamily=Helvetica;fontSize=12;fontColor=default;resizable=1;fillColor=#111111;strokeColor=none;size=5.568475452196374;container=0;" vertex="1" parent="4ou6pQqf3mK2EiXASReZ-107">
          <mxGeometry x="43" y="8.5" width="25" height="9" as="geometry" />
        </mxCell>
        <mxCell id="4ou6pQqf3mK2EiXASReZ-17" value="" style="shape=hexagon;perimeter=hexagonPerimeter2;whiteSpace=wrap;html=1;fixedSize=1;rounded=0;strokeWidth=1;align=center;verticalAlign=middle;fontFamily=Helvetica;fontSize=12;fontColor=default;resizable=1;fillColor=#111111;strokeColor=none;size=5.568475452196374;container=0;" vertex="1" parent="4ou6pQqf3mK2EiXASReZ-107">
          <mxGeometry x="64" y="3" width="25" height="9" as="geometry" />
        </mxCell>
        <mxCell id="4ou6pQqf3mK2EiXASReZ-18" value="" style="shape=hexagon;perimeter=hexagonPerimeter2;whiteSpace=wrap;html=1;fixedSize=1;rounded=0;strokeWidth=1;align=center;verticalAlign=middle;fontFamily=Helvetica;fontSize=12;fontColor=default;resizable=1;fillColor=#111111;strokeColor=none;size=5.568475452196374;container=0;" vertex="1" parent="4ou6pQqf3mK2EiXASReZ-107">
          <mxGeometry x="64" y="14" width="25" height="9" as="geometry" />
        </mxCell>
        <mxCell id="4ou6pQqf3mK2EiXASReZ-23" value="" style="whiteSpace=wrap;html=1;rounded=0;strokeWidth=1;align=center;verticalAlign=middle;fontFamily=Helvetica;fontSize=12;fontColor=default;resizable=1;fillColor=#010101;strokeColor=none;container=0;" vertex="1" parent="4ou6pQqf3mK2EiXASReZ-107">
          <mxGeometry x="100" y="1.5" width="2" height="23" as="geometry" />
        </mxCell>
        <mxCell id="4ou6pQqf3mK2EiXASReZ-24" value="" style="whiteSpace=wrap;html=1;rounded=0;strokeWidth=1;align=center;verticalAlign=middle;fontFamily=Helvetica;fontSize=12;fontColor=default;resizable=1;fillColor=#010101;strokeColor=none;container=0;" vertex="1" parent="4ou6pQqf3mK2EiXASReZ-107">
          <mxGeometry y="1.5" width="2" height="23" as="geometry" />
        </mxCell>
        <mxCell id="4ou6pQqf3mK2EiXASReZ-26" value="" style="shape=trapezoid;perimeter=trapezoidPerimeter;whiteSpace=wrap;html=1;fixedSize=1;rounded=0;strokeWidth=1;align=center;verticalAlign=middle;fontFamily=Helvetica;fontSize=12;fontColor=default;resizable=1;fillColor=#111111;strokeColor=none;size=4.939531859557853;container=0;flipV=1;" vertex="1" parent="4ou6pQqf3mK2EiXASReZ-107">
          <mxGeometry x="43.5" y="3" width="24" height="4" as="geometry" />
        </mxCell>
        <mxCell id="4ou6pQqf3mK2EiXASReZ-27" value="" style="rounded=1;whiteSpace=wrap;html=1;strokeColor=none;fillColor=#008a00;fontColor=#ffffff;container=0;arcSize=50;" vertex="1" parent="4ou6pQqf3mK2EiXASReZ-107">
          <mxGeometry x="105" y="6" width="3" height="3" as="geometry" />
        </mxCell>
        <mxCell id="4ou6pQqf3mK2EiXASReZ-28" value="" style="rounded=1;whiteSpace=wrap;html=1;strokeColor=none;fillColor=#0050ef;fontColor=#ffffff;container=0;arcSize=50;" vertex="1" parent="4ou6pQqf3mK2EiXASReZ-107">
          <mxGeometry x="105" y="2.5" width="3" height="3" as="geometry" />
        </mxCell>
        <mxCell id="4ou6pQqf3mK2EiXASReZ-29" value="" style="strokeWidth=0.1;html=1;shape=mxgraph.flowchart.database;whiteSpace=wrap;strokeColor=#010101;fillColor=none;movable=1;resizable=1;rotatable=1;deletable=1;editable=1;locked=0;connectable=1;container=0;" vertex="1" parent="4ou6pQqf3mK2EiXASReZ-107">
          <mxGeometry x="102.75" y="8" width="2" height="2" as="geometry" />
        </mxCell>
        <mxCell id="4ou6pQqf3mK2EiXASReZ-30" value="" style="strokeWidth=0.1;html=1;shape=mxgraph.flowchart.database;whiteSpace=wrap;strokeColor=#010101;fillColor=none;movable=1;resizable=1;rotatable=1;deletable=1;editable=1;locked=0;connectable=1;container=0;" vertex="1" parent="4ou6pQqf3mK2EiXASReZ-107">
          <mxGeometry x="102.75" y="1.5" width="2" height="2" as="geometry" />
        </mxCell>
        <mxCell id="4ou6pQqf3mK2EiXASReZ-31" value="" style="shape=mxgraph.sysml.x;strokeWidth=0.1;strokeColor=#010101;" vertex="1" parent="4ou6pQqf3mK2EiXASReZ-107">
          <mxGeometry x="102.75" y="8" width="2" height="2" as="geometry" />
        </mxCell>
        <mxCell id="4ou6pQqf3mK2EiXASReZ-106" value="" style="shape=trapezoid;perimeter=trapezoidPerimeter;whiteSpace=wrap;html=1;fixedSize=1;rounded=0;strokeWidth=1;align=center;verticalAlign=middle;fontFamily=Helvetica;fontSize=12;fontColor=default;resizable=1;fillColor=#111111;strokeColor=none;size=4.939531859557853;container=0;flipV=0;" vertex="1" parent="4ou6pQqf3mK2EiXASReZ-107">
          <mxGeometry x="43.5" y="19" width="24" height="4" as="geometry" />
        </mxCell>
        <mxCell id="4ou6pQqf3mK2EiXASReZ-108" value="" style="group" vertex="1" connectable="0" parent="4ou6pQqf3mK2EiXASReZ-177">
          <mxGeometry x="111" width="109" height="26" as="geometry" />
        </mxCell>
        <mxCell id="4ou6pQqf3mK2EiXASReZ-109" value="" style="rounded=0;whiteSpace=wrap;html=1;strokeColor=none;fillColor=#222222;strokeWidth=1;movable=1;resizable=1;rotatable=1;deletable=1;editable=1;locked=0;connectable=1;container=0;" vertex="1" parent="4ou6pQqf3mK2EiXASReZ-108">
          <mxGeometry width="109" height="26" as="geometry" />
        </mxCell>
        <mxCell id="4ou6pQqf3mK2EiXASReZ-110" value="" style="rounded=0;whiteSpace=wrap;html=1;strokeColor=#000000;fillColor=#222222;strokeWidth=1;movable=1;resizable=1;rotatable=1;deletable=1;editable=1;locked=0;connectable=1;container=0;perimeterSpacing=0;" vertex="1" parent="4ou6pQqf3mK2EiXASReZ-108">
          <mxGeometry x="2" y="2" width="100" height="22" as="geometry" />
        </mxCell>
        <mxCell id="4ou6pQqf3mK2EiXASReZ-111" value="" style="shape=loopLimit;whiteSpace=wrap;html=1;rounded=0;strokeWidth=1;align=center;verticalAlign=middle;fontFamily=Helvetica;fontSize=12;fontColor=default;resizable=1;fillColor=#111111;strokeColor=none;rotation=90;size=5;" vertex="1" parent="4ou6pQqf3mK2EiXASReZ-108">
          <mxGeometry x="1.75" y="3.25" width="21" height="19.5" as="geometry" />
        </mxCell>
        <mxCell id="4ou6pQqf3mK2EiXASReZ-112" value="" style="shape=loopLimit;whiteSpace=wrap;html=1;rounded=0;strokeWidth=0.1;align=center;verticalAlign=middle;fontFamily=Helvetica;fontSize=12;fontColor=default;resizable=1;fillColor=#111111;strokeColor=#000000;rotation=90;size=5;gradientColor=#222222;gradientDirection=north;" vertex="1" parent="4ou6pQqf3mK2EiXASReZ-108">
          <mxGeometry x="2.75" y="4.5" width="19" height="17" as="geometry" />
        </mxCell>
        <mxCell id="4ou6pQqf3mK2EiXASReZ-113" value="" style="whiteSpace=wrap;html=1;rounded=0;strokeWidth=1;align=center;verticalAlign=middle;fontFamily=Helvetica;fontSize=12;fontColor=default;resizable=1;fillColor=#010101;strokeColor=none;container=0;" vertex="1" parent="4ou6pQqf3mK2EiXASReZ-108">
          <mxGeometry x="89" y="2" width="6" height="22" as="geometry" />
        </mxCell>
        <mxCell id="4ou6pQqf3mK2EiXASReZ-114" value="" style="whiteSpace=wrap;html=1;rounded=0;strokeWidth=1;align=center;verticalAlign=middle;fontFamily=Helvetica;fontSize=12;fontColor=default;resizable=1;fillColor=#333333;strokeColor=none;container=0;" vertex="1" parent="4ou6pQqf3mK2EiXASReZ-108">
          <mxGeometry x="95" y="7.5" width="5" height="11" as="geometry" />
        </mxCell>
        <mxCell id="4ou6pQqf3mK2EiXASReZ-115" value="" style="triangle;whiteSpace=wrap;html=1;strokeColor=#111111;rounded=0;strokeWidth=0.1;align=center;verticalAlign=middle;fontFamily=Helvetica;fontSize=12;fontColor=default;resizable=1;fillColor=#333333;rotation=-180;container=0;" vertex="1" parent="4ou6pQqf3mK2EiXASReZ-108">
          <mxGeometry x="96" y="11.5" width="3" height="3" as="geometry" />
        </mxCell>
        <mxCell id="4ou6pQqf3mK2EiXASReZ-116" value="" style="whiteSpace=wrap;html=1;rounded=0;strokeWidth=1;align=center;verticalAlign=middle;fontFamily=Helvetica;fontSize=12;fontColor=default;resizable=1;fillColor=#333333;strokeColor=none;container=0;" vertex="1" parent="4ou6pQqf3mK2EiXASReZ-108">
          <mxGeometry x="22" y="7.5" width="67" height="11" as="geometry" />
        </mxCell>
        <mxCell id="4ou6pQqf3mK2EiXASReZ-117" value="" style="shape=hexagon;perimeter=hexagonPerimeter2;whiteSpace=wrap;html=1;fixedSize=1;rounded=0;strokeWidth=1;align=center;verticalAlign=middle;fontFamily=Helvetica;fontSize=12;fontColor=default;resizable=1;fillColor=#111111;strokeColor=none;size=5.568475452196374;container=0;" vertex="1" parent="4ou6pQqf3mK2EiXASReZ-108">
          <mxGeometry x="22" y="3" width="25" height="9" as="geometry" />
        </mxCell>
        <mxCell id="4ou6pQqf3mK2EiXASReZ-118" value="" style="shape=hexagon;perimeter=hexagonPerimeter2;whiteSpace=wrap;html=1;fixedSize=1;rounded=0;strokeWidth=1;align=center;verticalAlign=middle;fontFamily=Helvetica;fontSize=12;fontColor=default;resizable=1;fillColor=#111111;strokeColor=none;size=5.568475452196374;container=0;" vertex="1" parent="4ou6pQqf3mK2EiXASReZ-108">
          <mxGeometry x="22" y="14" width="25" height="9" as="geometry" />
        </mxCell>
        <mxCell id="4ou6pQqf3mK2EiXASReZ-119" value="" style="shape=hexagon;perimeter=hexagonPerimeter2;whiteSpace=wrap;html=1;fixedSize=1;rounded=0;strokeWidth=1;align=center;verticalAlign=middle;fontFamily=Helvetica;fontSize=12;fontColor=default;resizable=1;fillColor=#111111;strokeColor=none;size=5.568475452196374;container=0;" vertex="1" parent="4ou6pQqf3mK2EiXASReZ-108">
          <mxGeometry x="43" y="8.5" width="25" height="9" as="geometry" />
        </mxCell>
        <mxCell id="4ou6pQqf3mK2EiXASReZ-120" value="" style="shape=hexagon;perimeter=hexagonPerimeter2;whiteSpace=wrap;html=1;fixedSize=1;rounded=0;strokeWidth=1;align=center;verticalAlign=middle;fontFamily=Helvetica;fontSize=12;fontColor=default;resizable=1;fillColor=#111111;strokeColor=none;size=5.568475452196374;container=0;" vertex="1" parent="4ou6pQqf3mK2EiXASReZ-108">
          <mxGeometry x="64" y="3" width="25" height="9" as="geometry" />
        </mxCell>
        <mxCell id="4ou6pQqf3mK2EiXASReZ-121" value="" style="shape=hexagon;perimeter=hexagonPerimeter2;whiteSpace=wrap;html=1;fixedSize=1;rounded=0;strokeWidth=1;align=center;verticalAlign=middle;fontFamily=Helvetica;fontSize=12;fontColor=default;resizable=1;fillColor=#111111;strokeColor=none;size=5.568475452196374;container=0;" vertex="1" parent="4ou6pQqf3mK2EiXASReZ-108">
          <mxGeometry x="64" y="14" width="25" height="9" as="geometry" />
        </mxCell>
        <mxCell id="4ou6pQqf3mK2EiXASReZ-122" value="" style="whiteSpace=wrap;html=1;rounded=0;strokeWidth=1;align=center;verticalAlign=middle;fontFamily=Helvetica;fontSize=12;fontColor=default;resizable=1;fillColor=#010101;strokeColor=none;container=0;" vertex="1" parent="4ou6pQqf3mK2EiXASReZ-108">
          <mxGeometry x="100" y="1.5" width="2" height="23" as="geometry" />
        </mxCell>
        <mxCell id="4ou6pQqf3mK2EiXASReZ-123" value="" style="whiteSpace=wrap;html=1;rounded=0;strokeWidth=1;align=center;verticalAlign=middle;fontFamily=Helvetica;fontSize=12;fontColor=default;resizable=1;fillColor=#010101;strokeColor=none;container=0;" vertex="1" parent="4ou6pQqf3mK2EiXASReZ-108">
          <mxGeometry y="1.5" width="2" height="23" as="geometry" />
        </mxCell>
        <mxCell id="4ou6pQqf3mK2EiXASReZ-124" value="" style="shape=trapezoid;perimeter=trapezoidPerimeter;whiteSpace=wrap;html=1;fixedSize=1;rounded=0;strokeWidth=1;align=center;verticalAlign=middle;fontFamily=Helvetica;fontSize=12;fontColor=default;resizable=1;fillColor=#111111;strokeColor=none;size=4.939531859557853;container=0;flipV=1;" vertex="1" parent="4ou6pQqf3mK2EiXASReZ-108">
          <mxGeometry x="43.5" y="3" width="24" height="4" as="geometry" />
        </mxCell>
        <mxCell id="4ou6pQqf3mK2EiXASReZ-125" value="" style="rounded=1;whiteSpace=wrap;html=1;strokeColor=none;fillColor=#008a00;fontColor=#ffffff;container=0;arcSize=50;" vertex="1" parent="4ou6pQqf3mK2EiXASReZ-108">
          <mxGeometry x="105" y="6" width="3" height="3" as="geometry" />
        </mxCell>
        <mxCell id="4ou6pQqf3mK2EiXASReZ-126" value="" style="rounded=1;whiteSpace=wrap;html=1;strokeColor=none;fillColor=#0050ef;fontColor=#ffffff;container=0;arcSize=50;" vertex="1" parent="4ou6pQqf3mK2EiXASReZ-108">
          <mxGeometry x="105" y="2.5" width="3" height="3" as="geometry" />
        </mxCell>
        <mxCell id="4ou6pQqf3mK2EiXASReZ-127" value="" style="strokeWidth=0.1;html=1;shape=mxgraph.flowchart.database;whiteSpace=wrap;strokeColor=#010101;fillColor=none;movable=1;resizable=1;rotatable=1;deletable=1;editable=1;locked=0;connectable=1;container=0;" vertex="1" parent="4ou6pQqf3mK2EiXASReZ-108">
          <mxGeometry x="102.75" y="8" width="2" height="2" as="geometry" />
        </mxCell>
        <mxCell id="4ou6pQqf3mK2EiXASReZ-128" value="" style="strokeWidth=0.1;html=1;shape=mxgraph.flowchart.database;whiteSpace=wrap;strokeColor=#010101;fillColor=none;movable=1;resizable=1;rotatable=1;deletable=1;editable=1;locked=0;connectable=1;container=0;" vertex="1" parent="4ou6pQqf3mK2EiXASReZ-108">
          <mxGeometry x="102.75" y="1.5" width="2" height="2" as="geometry" />
        </mxCell>
        <mxCell id="4ou6pQqf3mK2EiXASReZ-129" value="" style="shape=mxgraph.sysml.x;strokeWidth=0.1;strokeColor=#010101;" vertex="1" parent="4ou6pQqf3mK2EiXASReZ-108">
          <mxGeometry x="102.75" y="8" width="2" height="2" as="geometry" />
        </mxCell>
        <mxCell id="4ou6pQqf3mK2EiXASReZ-130" value="" style="shape=trapezoid;perimeter=trapezoidPerimeter;whiteSpace=wrap;html=1;fixedSize=1;rounded=0;strokeWidth=1;align=center;verticalAlign=middle;fontFamily=Helvetica;fontSize=12;fontColor=default;resizable=1;fillColor=#111111;strokeColor=none;size=4.939531859557853;container=0;flipV=0;" vertex="1" parent="4ou6pQqf3mK2EiXASReZ-108">
          <mxGeometry x="43.5" y="19" width="24" height="4" as="geometry" />
        </mxCell>
        <mxCell id="4ou6pQqf3mK2EiXASReZ-131" value="" style="group" vertex="1" connectable="0" parent="4ou6pQqf3mK2EiXASReZ-177">
          <mxGeometry x="222" width="109" height="26" as="geometry" />
        </mxCell>
        <mxCell id="4ou6pQqf3mK2EiXASReZ-132" value="" style="rounded=0;whiteSpace=wrap;html=1;strokeColor=none;fillColor=#222222;strokeWidth=1;movable=1;resizable=1;rotatable=1;deletable=1;editable=1;locked=0;connectable=1;container=0;" vertex="1" parent="4ou6pQqf3mK2EiXASReZ-131">
          <mxGeometry width="109" height="26" as="geometry" />
        </mxCell>
        <mxCell id="4ou6pQqf3mK2EiXASReZ-133" value="" style="rounded=0;whiteSpace=wrap;html=1;strokeColor=#000000;fillColor=#222222;strokeWidth=1;movable=1;resizable=1;rotatable=1;deletable=1;editable=1;locked=0;connectable=1;container=0;perimeterSpacing=0;" vertex="1" parent="4ou6pQqf3mK2EiXASReZ-131">
          <mxGeometry x="2" y="2" width="100" height="22" as="geometry" />
        </mxCell>
        <mxCell id="4ou6pQqf3mK2EiXASReZ-134" value="" style="shape=loopLimit;whiteSpace=wrap;html=1;rounded=0;strokeWidth=1;align=center;verticalAlign=middle;fontFamily=Helvetica;fontSize=12;fontColor=default;resizable=1;fillColor=#111111;strokeColor=none;rotation=90;size=5;" vertex="1" parent="4ou6pQqf3mK2EiXASReZ-131">
          <mxGeometry x="1.75" y="3.25" width="21" height="19.5" as="geometry" />
        </mxCell>
        <mxCell id="4ou6pQqf3mK2EiXASReZ-135" value="" style="shape=loopLimit;whiteSpace=wrap;html=1;rounded=0;strokeWidth=0.1;align=center;verticalAlign=middle;fontFamily=Helvetica;fontSize=12;fontColor=default;resizable=1;fillColor=#111111;strokeColor=#000000;rotation=90;size=5;gradientColor=#222222;gradientDirection=north;" vertex="1" parent="4ou6pQqf3mK2EiXASReZ-131">
          <mxGeometry x="2.75" y="4.5" width="19" height="17" as="geometry" />
        </mxCell>
        <mxCell id="4ou6pQqf3mK2EiXASReZ-136" value="" style="whiteSpace=wrap;html=1;rounded=0;strokeWidth=1;align=center;verticalAlign=middle;fontFamily=Helvetica;fontSize=12;fontColor=default;resizable=1;fillColor=#010101;strokeColor=none;container=0;" vertex="1" parent="4ou6pQqf3mK2EiXASReZ-131">
          <mxGeometry x="89" y="2" width="6" height="22" as="geometry" />
        </mxCell>
        <mxCell id="4ou6pQqf3mK2EiXASReZ-137" value="" style="whiteSpace=wrap;html=1;rounded=0;strokeWidth=1;align=center;verticalAlign=middle;fontFamily=Helvetica;fontSize=12;fontColor=default;resizable=1;fillColor=#333333;strokeColor=none;container=0;" vertex="1" parent="4ou6pQqf3mK2EiXASReZ-131">
          <mxGeometry x="95" y="7.5" width="5" height="11" as="geometry" />
        </mxCell>
        <mxCell id="4ou6pQqf3mK2EiXASReZ-138" value="" style="triangle;whiteSpace=wrap;html=1;strokeColor=#111111;rounded=0;strokeWidth=0.1;align=center;verticalAlign=middle;fontFamily=Helvetica;fontSize=12;fontColor=default;resizable=1;fillColor=#333333;rotation=-180;container=0;" vertex="1" parent="4ou6pQqf3mK2EiXASReZ-131">
          <mxGeometry x="96" y="11.5" width="3" height="3" as="geometry" />
        </mxCell>
        <mxCell id="4ou6pQqf3mK2EiXASReZ-139" value="" style="whiteSpace=wrap;html=1;rounded=0;strokeWidth=1;align=center;verticalAlign=middle;fontFamily=Helvetica;fontSize=12;fontColor=default;resizable=1;fillColor=#333333;strokeColor=none;container=0;" vertex="1" parent="4ou6pQqf3mK2EiXASReZ-131">
          <mxGeometry x="22" y="7.5" width="67" height="11" as="geometry" />
        </mxCell>
        <mxCell id="4ou6pQqf3mK2EiXASReZ-140" value="" style="shape=hexagon;perimeter=hexagonPerimeter2;whiteSpace=wrap;html=1;fixedSize=1;rounded=0;strokeWidth=1;align=center;verticalAlign=middle;fontFamily=Helvetica;fontSize=12;fontColor=default;resizable=1;fillColor=#111111;strokeColor=none;size=5.568475452196374;container=0;" vertex="1" parent="4ou6pQqf3mK2EiXASReZ-131">
          <mxGeometry x="22" y="3" width="25" height="9" as="geometry" />
        </mxCell>
        <mxCell id="4ou6pQqf3mK2EiXASReZ-141" value="" style="shape=hexagon;perimeter=hexagonPerimeter2;whiteSpace=wrap;html=1;fixedSize=1;rounded=0;strokeWidth=1;align=center;verticalAlign=middle;fontFamily=Helvetica;fontSize=12;fontColor=default;resizable=1;fillColor=#111111;strokeColor=none;size=5.568475452196374;container=0;" vertex="1" parent="4ou6pQqf3mK2EiXASReZ-131">
          <mxGeometry x="22" y="14" width="25" height="9" as="geometry" />
        </mxCell>
        <mxCell id="4ou6pQqf3mK2EiXASReZ-142" value="" style="shape=hexagon;perimeter=hexagonPerimeter2;whiteSpace=wrap;html=1;fixedSize=1;rounded=0;strokeWidth=1;align=center;verticalAlign=middle;fontFamily=Helvetica;fontSize=12;fontColor=default;resizable=1;fillColor=#111111;strokeColor=none;size=5.568475452196374;container=0;" vertex="1" parent="4ou6pQqf3mK2EiXASReZ-131">
          <mxGeometry x="43" y="8.5" width="25" height="9" as="geometry" />
        </mxCell>
        <mxCell id="4ou6pQqf3mK2EiXASReZ-143" value="" style="shape=hexagon;perimeter=hexagonPerimeter2;whiteSpace=wrap;html=1;fixedSize=1;rounded=0;strokeWidth=1;align=center;verticalAlign=middle;fontFamily=Helvetica;fontSize=12;fontColor=default;resizable=1;fillColor=#111111;strokeColor=none;size=5.568475452196374;container=0;" vertex="1" parent="4ou6pQqf3mK2EiXASReZ-131">
          <mxGeometry x="64" y="3" width="25" height="9" as="geometry" />
        </mxCell>
        <mxCell id="4ou6pQqf3mK2EiXASReZ-144" value="" style="shape=hexagon;perimeter=hexagonPerimeter2;whiteSpace=wrap;html=1;fixedSize=1;rounded=0;strokeWidth=1;align=center;verticalAlign=middle;fontFamily=Helvetica;fontSize=12;fontColor=default;resizable=1;fillColor=#111111;strokeColor=none;size=5.568475452196374;container=0;" vertex="1" parent="4ou6pQqf3mK2EiXASReZ-131">
          <mxGeometry x="64" y="14" width="25" height="9" as="geometry" />
        </mxCell>
        <mxCell id="4ou6pQqf3mK2EiXASReZ-145" value="" style="whiteSpace=wrap;html=1;rounded=0;strokeWidth=1;align=center;verticalAlign=middle;fontFamily=Helvetica;fontSize=12;fontColor=default;resizable=1;fillColor=#010101;strokeColor=none;container=0;" vertex="1" parent="4ou6pQqf3mK2EiXASReZ-131">
          <mxGeometry x="100" y="1.5" width="2" height="23" as="geometry" />
        </mxCell>
        <mxCell id="4ou6pQqf3mK2EiXASReZ-146" value="" style="whiteSpace=wrap;html=1;rounded=0;strokeWidth=1;align=center;verticalAlign=middle;fontFamily=Helvetica;fontSize=12;fontColor=default;resizable=1;fillColor=#010101;strokeColor=none;container=0;" vertex="1" parent="4ou6pQqf3mK2EiXASReZ-131">
          <mxGeometry y="1.5" width="2" height="23" as="geometry" />
        </mxCell>
        <mxCell id="4ou6pQqf3mK2EiXASReZ-147" value="" style="shape=trapezoid;perimeter=trapezoidPerimeter;whiteSpace=wrap;html=1;fixedSize=1;rounded=0;strokeWidth=1;align=center;verticalAlign=middle;fontFamily=Helvetica;fontSize=12;fontColor=default;resizable=1;fillColor=#111111;strokeColor=none;size=4.939531859557853;container=0;flipV=1;" vertex="1" parent="4ou6pQqf3mK2EiXASReZ-131">
          <mxGeometry x="43.5" y="3" width="24" height="4" as="geometry" />
        </mxCell>
        <mxCell id="4ou6pQqf3mK2EiXASReZ-148" value="" style="rounded=1;whiteSpace=wrap;html=1;strokeColor=none;fillColor=#008a00;fontColor=#ffffff;container=0;arcSize=50;" vertex="1" parent="4ou6pQqf3mK2EiXASReZ-131">
          <mxGeometry x="105" y="6" width="3" height="3" as="geometry" />
        </mxCell>
        <mxCell id="4ou6pQqf3mK2EiXASReZ-149" value="" style="rounded=1;whiteSpace=wrap;html=1;strokeColor=none;fillColor=#0050ef;fontColor=#ffffff;container=0;arcSize=50;" vertex="1" parent="4ou6pQqf3mK2EiXASReZ-131">
          <mxGeometry x="105" y="2.5" width="3" height="3" as="geometry" />
        </mxCell>
        <mxCell id="4ou6pQqf3mK2EiXASReZ-150" value="" style="strokeWidth=0.1;html=1;shape=mxgraph.flowchart.database;whiteSpace=wrap;strokeColor=#010101;fillColor=none;movable=1;resizable=1;rotatable=1;deletable=1;editable=1;locked=0;connectable=1;container=0;" vertex="1" parent="4ou6pQqf3mK2EiXASReZ-131">
          <mxGeometry x="102.75" y="8" width="2" height="2" as="geometry" />
        </mxCell>
        <mxCell id="4ou6pQqf3mK2EiXASReZ-151" value="" style="strokeWidth=0.1;html=1;shape=mxgraph.flowchart.database;whiteSpace=wrap;strokeColor=#010101;fillColor=none;movable=1;resizable=1;rotatable=1;deletable=1;editable=1;locked=0;connectable=1;container=0;" vertex="1" parent="4ou6pQqf3mK2EiXASReZ-131">
          <mxGeometry x="102.75" y="1.5" width="2" height="2" as="geometry" />
        </mxCell>
        <mxCell id="4ou6pQqf3mK2EiXASReZ-152" value="" style="shape=mxgraph.sysml.x;strokeWidth=0.1;strokeColor=#010101;" vertex="1" parent="4ou6pQqf3mK2EiXASReZ-131">
          <mxGeometry x="102.75" y="8" width="2" height="2" as="geometry" />
        </mxCell>
        <mxCell id="4ou6pQqf3mK2EiXASReZ-153" value="" style="shape=trapezoid;perimeter=trapezoidPerimeter;whiteSpace=wrap;html=1;fixedSize=1;rounded=0;strokeWidth=1;align=center;verticalAlign=middle;fontFamily=Helvetica;fontSize=12;fontColor=default;resizable=1;fillColor=#111111;strokeColor=none;size=4.939531859557853;container=0;flipV=0;" vertex="1" parent="4ou6pQqf3mK2EiXASReZ-131">
          <mxGeometry x="43.5" y="19" width="24" height="4" as="geometry" />
        </mxCell>
        <mxCell id="4ou6pQqf3mK2EiXASReZ-154" value="" style="group" vertex="1" connectable="0" parent="4ou6pQqf3mK2EiXASReZ-177">
          <mxGeometry x="333" width="109" height="26" as="geometry" />
        </mxCell>
        <mxCell id="4ou6pQqf3mK2EiXASReZ-155" value="" style="rounded=0;whiteSpace=wrap;html=1;strokeColor=none;fillColor=#222222;strokeWidth=1;movable=1;resizable=1;rotatable=1;deletable=1;editable=1;locked=0;connectable=1;container=0;" vertex="1" parent="4ou6pQqf3mK2EiXASReZ-154">
          <mxGeometry width="109" height="26" as="geometry" />
        </mxCell>
        <mxCell id="4ou6pQqf3mK2EiXASReZ-156" value="" style="rounded=0;whiteSpace=wrap;html=1;strokeColor=#000000;fillColor=#222222;strokeWidth=1;movable=1;resizable=1;rotatable=1;deletable=1;editable=1;locked=0;connectable=1;container=0;perimeterSpacing=0;" vertex="1" parent="4ou6pQqf3mK2EiXASReZ-154">
          <mxGeometry x="2" y="2" width="100" height="22" as="geometry" />
        </mxCell>
        <mxCell id="4ou6pQqf3mK2EiXASReZ-157" value="" style="shape=loopLimit;whiteSpace=wrap;html=1;rounded=0;strokeWidth=1;align=center;verticalAlign=middle;fontFamily=Helvetica;fontSize=12;fontColor=default;resizable=1;fillColor=#111111;strokeColor=none;rotation=90;size=5;" vertex="1" parent="4ou6pQqf3mK2EiXASReZ-154">
          <mxGeometry x="1.75" y="3.25" width="21" height="19.5" as="geometry" />
        </mxCell>
        <mxCell id="4ou6pQqf3mK2EiXASReZ-158" value="" style="shape=loopLimit;whiteSpace=wrap;html=1;rounded=0;strokeWidth=0.1;align=center;verticalAlign=middle;fontFamily=Helvetica;fontSize=12;fontColor=default;resizable=1;fillColor=#111111;strokeColor=#000000;rotation=90;size=5;gradientColor=#222222;gradientDirection=north;" vertex="1" parent="4ou6pQqf3mK2EiXASReZ-154">
          <mxGeometry x="2.75" y="4.5" width="19" height="17" as="geometry" />
        </mxCell>
        <mxCell id="4ou6pQqf3mK2EiXASReZ-159" value="" style="whiteSpace=wrap;html=1;rounded=0;strokeWidth=1;align=center;verticalAlign=middle;fontFamily=Helvetica;fontSize=12;fontColor=default;resizable=1;fillColor=#010101;strokeColor=none;container=0;" vertex="1" parent="4ou6pQqf3mK2EiXASReZ-154">
          <mxGeometry x="89" y="2" width="6" height="22" as="geometry" />
        </mxCell>
        <mxCell id="4ou6pQqf3mK2EiXASReZ-160" value="" style="whiteSpace=wrap;html=1;rounded=0;strokeWidth=1;align=center;verticalAlign=middle;fontFamily=Helvetica;fontSize=12;fontColor=default;resizable=1;fillColor=#333333;strokeColor=none;container=0;" vertex="1" parent="4ou6pQqf3mK2EiXASReZ-154">
          <mxGeometry x="95" y="7.5" width="5" height="11" as="geometry" />
        </mxCell>
        <mxCell id="4ou6pQqf3mK2EiXASReZ-161" value="" style="triangle;whiteSpace=wrap;html=1;strokeColor=#111111;rounded=0;strokeWidth=0.1;align=center;verticalAlign=middle;fontFamily=Helvetica;fontSize=12;fontColor=default;resizable=1;fillColor=#333333;rotation=-180;container=0;" vertex="1" parent="4ou6pQqf3mK2EiXASReZ-154">
          <mxGeometry x="96" y="11.5" width="3" height="3" as="geometry" />
        </mxCell>
        <mxCell id="4ou6pQqf3mK2EiXASReZ-162" value="" style="whiteSpace=wrap;html=1;rounded=0;strokeWidth=1;align=center;verticalAlign=middle;fontFamily=Helvetica;fontSize=12;fontColor=default;resizable=1;fillColor=#333333;strokeColor=none;container=0;" vertex="1" parent="4ou6pQqf3mK2EiXASReZ-154">
          <mxGeometry x="22" y="7.5" width="67" height="11" as="geometry" />
        </mxCell>
        <mxCell id="4ou6pQqf3mK2EiXASReZ-163" value="" style="shape=hexagon;perimeter=hexagonPerimeter2;whiteSpace=wrap;html=1;fixedSize=1;rounded=0;strokeWidth=1;align=center;verticalAlign=middle;fontFamily=Helvetica;fontSize=12;fontColor=default;resizable=1;fillColor=#111111;strokeColor=none;size=5.568475452196374;container=0;" vertex="1" parent="4ou6pQqf3mK2EiXASReZ-154">
          <mxGeometry x="22" y="3" width="25" height="9" as="geometry" />
        </mxCell>
        <mxCell id="4ou6pQqf3mK2EiXASReZ-164" value="" style="shape=hexagon;perimeter=hexagonPerimeter2;whiteSpace=wrap;html=1;fixedSize=1;rounded=0;strokeWidth=1;align=center;verticalAlign=middle;fontFamily=Helvetica;fontSize=12;fontColor=default;resizable=1;fillColor=#111111;strokeColor=none;size=5.568475452196374;container=0;" vertex="1" parent="4ou6pQqf3mK2EiXASReZ-154">
          <mxGeometry x="22" y="14" width="25" height="9" as="geometry" />
        </mxCell>
        <mxCell id="4ou6pQqf3mK2EiXASReZ-165" value="" style="shape=hexagon;perimeter=hexagonPerimeter2;whiteSpace=wrap;html=1;fixedSize=1;rounded=0;strokeWidth=1;align=center;verticalAlign=middle;fontFamily=Helvetica;fontSize=12;fontColor=default;resizable=1;fillColor=#111111;strokeColor=none;size=5.568475452196374;container=0;" vertex="1" parent="4ou6pQqf3mK2EiXASReZ-154">
          <mxGeometry x="43" y="8.5" width="25" height="9" as="geometry" />
        </mxCell>
        <mxCell id="4ou6pQqf3mK2EiXASReZ-166" value="" style="shape=hexagon;perimeter=hexagonPerimeter2;whiteSpace=wrap;html=1;fixedSize=1;rounded=0;strokeWidth=1;align=center;verticalAlign=middle;fontFamily=Helvetica;fontSize=12;fontColor=default;resizable=1;fillColor=#111111;strokeColor=none;size=5.568475452196374;container=0;" vertex="1" parent="4ou6pQqf3mK2EiXASReZ-154">
          <mxGeometry x="64" y="3" width="25" height="9" as="geometry" />
        </mxCell>
        <mxCell id="4ou6pQqf3mK2EiXASReZ-167" value="" style="shape=hexagon;perimeter=hexagonPerimeter2;whiteSpace=wrap;html=1;fixedSize=1;rounded=0;strokeWidth=1;align=center;verticalAlign=middle;fontFamily=Helvetica;fontSize=12;fontColor=default;resizable=1;fillColor=#111111;strokeColor=none;size=5.568475452196374;container=0;" vertex="1" parent="4ou6pQqf3mK2EiXASReZ-154">
          <mxGeometry x="64" y="14" width="25" height="9" as="geometry" />
        </mxCell>
        <mxCell id="4ou6pQqf3mK2EiXASReZ-168" value="" style="whiteSpace=wrap;html=1;rounded=0;strokeWidth=1;align=center;verticalAlign=middle;fontFamily=Helvetica;fontSize=12;fontColor=default;resizable=1;fillColor=#010101;strokeColor=none;container=0;" vertex="1" parent="4ou6pQqf3mK2EiXASReZ-154">
          <mxGeometry x="100" y="1.5" width="2" height="23" as="geometry" />
        </mxCell>
        <mxCell id="4ou6pQqf3mK2EiXASReZ-169" value="" style="whiteSpace=wrap;html=1;rounded=0;strokeWidth=1;align=center;verticalAlign=middle;fontFamily=Helvetica;fontSize=12;fontColor=default;resizable=1;fillColor=#010101;strokeColor=none;container=0;" vertex="1" parent="4ou6pQqf3mK2EiXASReZ-154">
          <mxGeometry y="1.5" width="2" height="23" as="geometry" />
        </mxCell>
        <mxCell id="4ou6pQqf3mK2EiXASReZ-170" value="" style="shape=trapezoid;perimeter=trapezoidPerimeter;whiteSpace=wrap;html=1;fixedSize=1;rounded=0;strokeWidth=1;align=center;verticalAlign=middle;fontFamily=Helvetica;fontSize=12;fontColor=default;resizable=1;fillColor=#111111;strokeColor=none;size=4.939531859557853;container=0;flipV=1;" vertex="1" parent="4ou6pQqf3mK2EiXASReZ-154">
          <mxGeometry x="43.5" y="3" width="24" height="4" as="geometry" />
        </mxCell>
        <mxCell id="4ou6pQqf3mK2EiXASReZ-171" value="" style="rounded=1;whiteSpace=wrap;html=1;strokeColor=none;fillColor=#008a00;fontColor=#ffffff;container=0;arcSize=50;" vertex="1" parent="4ou6pQqf3mK2EiXASReZ-154">
          <mxGeometry x="105" y="6" width="3" height="3" as="geometry" />
        </mxCell>
        <mxCell id="4ou6pQqf3mK2EiXASReZ-172" value="" style="rounded=1;whiteSpace=wrap;html=1;strokeColor=none;fillColor=#0050ef;fontColor=#ffffff;container=0;arcSize=50;" vertex="1" parent="4ou6pQqf3mK2EiXASReZ-154">
          <mxGeometry x="105" y="2.5" width="3" height="3" as="geometry" />
        </mxCell>
        <mxCell id="4ou6pQqf3mK2EiXASReZ-173" value="" style="strokeWidth=0.1;html=1;shape=mxgraph.flowchart.database;whiteSpace=wrap;strokeColor=#010101;fillColor=none;movable=1;resizable=1;rotatable=1;deletable=1;editable=1;locked=0;connectable=1;container=0;" vertex="1" parent="4ou6pQqf3mK2EiXASReZ-154">
          <mxGeometry x="102.75" y="8" width="2" height="2" as="geometry" />
        </mxCell>
        <mxCell id="4ou6pQqf3mK2EiXASReZ-174" value="" style="strokeWidth=0.1;html=1;shape=mxgraph.flowchart.database;whiteSpace=wrap;strokeColor=#010101;fillColor=none;movable=1;resizable=1;rotatable=1;deletable=1;editable=1;locked=0;connectable=1;container=0;" vertex="1" parent="4ou6pQqf3mK2EiXASReZ-154">
          <mxGeometry x="102.75" y="1.5" width="2" height="2" as="geometry" />
        </mxCell>
        <mxCell id="4ou6pQqf3mK2EiXASReZ-175" value="" style="shape=mxgraph.sysml.x;strokeWidth=0.1;strokeColor=#010101;" vertex="1" parent="4ou6pQqf3mK2EiXASReZ-154">
          <mxGeometry x="102.75" y="8" width="2" height="2" as="geometry" />
        </mxCell>
        <mxCell id="4ou6pQqf3mK2EiXASReZ-176" value="" style="shape=trapezoid;perimeter=trapezoidPerimeter;whiteSpace=wrap;html=1;fixedSize=1;rounded=0;strokeWidth=1;align=center;verticalAlign=middle;fontFamily=Helvetica;fontSize=12;fontColor=default;resizable=1;fillColor=#111111;strokeColor=none;size=4.939531859557853;container=0;flipV=0;" vertex="1" parent="4ou6pQqf3mK2EiXASReZ-154">
          <mxGeometry x="43.5" y="19" width="24" height="4" as="geometry" />
        </mxCell>
        <mxCell id="4ou6pQqf3mK2EiXASReZ-179" value="" style="rounded=1;whiteSpace=wrap;html=1;strokeColor=none;fillColor=#000000;strokeWidth=1;movable=1;resizable=1;rotatable=1;deletable=1;editable=1;locked=0;connectable=1;container=0;" vertex="1" parent="4ou6pQqf3mK2EiXASReZ-273">
          <mxGeometry x="34" y="6.5" width="6.5" height="7" as="geometry" />
        </mxCell>
        <mxCell id="4ou6pQqf3mK2EiXASReZ-180" value="" style="rounded=1;whiteSpace=wrap;html=1;strokeColor=none;fillColor=#000000;strokeWidth=1;movable=1;resizable=1;rotatable=1;deletable=1;editable=1;locked=0;connectable=1;container=0;" vertex="1" parent="4ou6pQqf3mK2EiXASReZ-273">
          <mxGeometry x="41.5" y="6.5" width="6.5" height="7" as="geometry" />
        </mxCell>
        <mxCell id="4ou6pQqf3mK2EiXASReZ-181" value="" style="rounded=1;whiteSpace=wrap;html=1;strokeColor=none;fillColor=#000000;strokeWidth=1;movable=1;resizable=1;rotatable=1;deletable=1;editable=1;locked=0;connectable=1;container=0;" vertex="1" parent="4ou6pQqf3mK2EiXASReZ-273">
          <mxGeometry x="49" y="6.5" width="6.5" height="7" as="geometry" />
        </mxCell>
        <mxCell id="4ou6pQqf3mK2EiXASReZ-182" value="" style="rounded=1;whiteSpace=wrap;html=1;strokeColor=none;fillColor=#000000;strokeWidth=1;movable=1;resizable=1;rotatable=1;deletable=1;editable=1;locked=0;connectable=1;container=0;" vertex="1" parent="4ou6pQqf3mK2EiXASReZ-273">
          <mxGeometry x="56.5" y="6.5" width="6.5" height="7" as="geometry" />
        </mxCell>
        <mxCell id="4ou6pQqf3mK2EiXASReZ-183" value="" style="rounded=1;whiteSpace=wrap;html=1;strokeColor=none;fillColor=#000000;strokeWidth=1;movable=1;resizable=1;rotatable=1;deletable=1;editable=1;locked=0;connectable=1;container=0;" vertex="1" parent="4ou6pQqf3mK2EiXASReZ-273">
          <mxGeometry x="26.5" y="1.5" width="6.5" height="12" as="geometry" />
        </mxCell>
        <mxCell id="4ou6pQqf3mK2EiXASReZ-184" value="" style="rounded=1;whiteSpace=wrap;html=1;strokeColor=none;fillColor=#000000;strokeWidth=1;movable=1;resizable=1;rotatable=1;deletable=1;editable=1;locked=0;connectable=1;container=0;" vertex="1" parent="4ou6pQqf3mK2EiXASReZ-273">
          <mxGeometry x="64" y="6.5" width="6.5" height="7" as="geometry" />
        </mxCell>
        <mxCell id="4ou6pQqf3mK2EiXASReZ-185" value="" style="rounded=1;whiteSpace=wrap;html=1;strokeColor=none;fillColor=#000000;strokeWidth=1;movable=1;resizable=1;rotatable=1;deletable=1;editable=1;locked=0;connectable=1;container=0;" vertex="1" parent="4ou6pQqf3mK2EiXASReZ-273">
          <mxGeometry x="71.5" y="6.5" width="6.5" height="7" as="geometry" />
        </mxCell>
        <mxCell id="4ou6pQqf3mK2EiXASReZ-186" value="" style="rounded=1;whiteSpace=wrap;html=1;strokeColor=none;fillColor=#000000;strokeWidth=1;movable=1;resizable=1;rotatable=1;deletable=1;editable=1;locked=0;connectable=1;container=0;" vertex="1" parent="4ou6pQqf3mK2EiXASReZ-273">
          <mxGeometry x="79" y="1.5" width="6.5" height="12" as="geometry" />
        </mxCell>
        <mxCell id="4ou6pQqf3mK2EiXASReZ-187" value="" style="rounded=1;whiteSpace=wrap;html=1;strokeColor=none;fillColor=#000000;strokeWidth=1;movable=1;resizable=1;rotatable=1;deletable=1;editable=1;locked=0;connectable=1;container=0;" vertex="1" parent="4ou6pQqf3mK2EiXASReZ-273">
          <mxGeometry x="86.5" y="1.5" width="6.5" height="12" as="geometry" />
        </mxCell>
        <mxCell id="4ou6pQqf3mK2EiXASReZ-188" value="" style="rounded=1;whiteSpace=wrap;html=1;strokeColor=none;fillColor=#000000;strokeWidth=1;movable=1;resizable=1;rotatable=1;deletable=1;editable=1;locked=0;connectable=1;container=0;" vertex="1" parent="4ou6pQqf3mK2EiXASReZ-273">
          <mxGeometry x="94" y="1.5" width="6.5" height="12" as="geometry" />
        </mxCell>
        <mxCell id="4ou6pQqf3mK2EiXASReZ-189" value="" style="rounded=1;whiteSpace=wrap;html=1;strokeColor=none;fillColor=#000000;strokeWidth=1;movable=1;resizable=1;rotatable=1;deletable=1;editable=1;locked=0;connectable=1;container=0;" vertex="1" parent="4ou6pQqf3mK2EiXASReZ-273">
          <mxGeometry x="101.5" y="1.5" width="6.5" height="12" as="geometry" />
        </mxCell>
        <mxCell id="4ou6pQqf3mK2EiXASReZ-190" value="" style="rounded=1;whiteSpace=wrap;html=1;strokeColor=none;fillColor=#000000;strokeWidth=1;movable=1;resizable=1;rotatable=1;deletable=1;editable=1;locked=0;connectable=1;container=0;" vertex="1" parent="4ou6pQqf3mK2EiXASReZ-273">
          <mxGeometry x="109" y="1.5" width="6.5" height="12" as="geometry" />
        </mxCell>
        <mxCell id="4ou6pQqf3mK2EiXASReZ-191" value="" style="rounded=1;whiteSpace=wrap;html=1;strokeColor=none;fillColor=#000000;strokeWidth=1;movable=1;resizable=1;rotatable=1;deletable=1;editable=1;locked=0;connectable=1;container=0;" vertex="1" parent="4ou6pQqf3mK2EiXASReZ-273">
          <mxGeometry x="116.5" y="1.5" width="6.5" height="12" as="geometry" />
        </mxCell>
        <mxCell id="s0dWRtyi07ZF37cMcm2--303" value="" style="rounded=0;whiteSpace=wrap;html=1;strokeColor=none;fillColor=#000000;strokeWidth=1;movable=1;resizable=1;rotatable=1;deletable=1;editable=1;locked=0;connectable=1;container=0;" parent="4ou6pQqf3mK2EiXASReZ-273" vertex="1">
          <mxGeometry x="44.75" y="0.5" width="20" height="5" as="geometry" />
        </mxCell>
        <mxCell id="s0dWRtyi07ZF37cMcm2--302" value="" style="rounded=0;whiteSpace=wrap;html=1;strokeColor=#000000;fillColor=#222222;strokeWidth=0.1;movable=1;resizable=1;rotatable=1;deletable=1;editable=1;locked=0;connectable=1;container=0;" parent="4ou6pQqf3mK2EiXASReZ-273" vertex="1">
          <mxGeometry x="31.75" y="1.5" width="46" height="4" as="geometry" />
        </mxCell>
        <mxCell id="s0dWRtyi07ZF37cMcm2--304" value="" style="rounded=0;whiteSpace=wrap;html=1;strokeColor=#000000;fillColor=#333333;strokeWidth=0.1;movable=1;resizable=1;rotatable=1;deletable=1;editable=1;locked=0;connectable=1;container=0;" parent="4ou6pQqf3mK2EiXASReZ-273" vertex="1">
          <mxGeometry x="39.75" y="1.5" width="30" height="4" as="geometry" />
        </mxCell>
        <mxCell id="s0dWRtyi07ZF37cMcm2--337" value="" style="rounded=0;whiteSpace=wrap;html=1;strokeColor=#000000;fillColor=#333333;strokeWidth=0.1;movable=1;resizable=1;rotatable=1;deletable=1;editable=1;locked=0;connectable=1;container=0;" parent="4ou6pQqf3mK2EiXASReZ-273" vertex="1">
          <mxGeometry x="42.75" y="1.5" width="24" height="4" as="geometry" />
        </mxCell>
        <mxCell id="4ou6pQqf3mK2EiXASReZ-192" value="" style="rounded=1;whiteSpace=wrap;html=1;strokeColor=none;fillColor=#000000;strokeWidth=1;movable=1;resizable=1;rotatable=1;deletable=1;editable=1;locked=0;connectable=1;container=0;" vertex="1" parent="4ou6pQqf3mK2EiXASReZ-273">
          <mxGeometry x="124" y="1.5" width="6.5" height="12" as="geometry" />
        </mxCell>
        <mxCell id="4ou6pQqf3mK2EiXASReZ-193" value="" style="rounded=1;whiteSpace=wrap;html=1;strokeColor=none;fillColor=#000000;strokeWidth=1;movable=1;resizable=1;rotatable=1;deletable=1;editable=1;locked=0;connectable=1;container=0;" vertex="1" parent="4ou6pQqf3mK2EiXASReZ-273">
          <mxGeometry x="131.5" y="1.5" width="6.5" height="12" as="geometry" />
        </mxCell>
        <mxCell id="4ou6pQqf3mK2EiXASReZ-194" value="" style="rounded=1;whiteSpace=wrap;html=1;strokeColor=none;fillColor=#000000;strokeWidth=1;movable=1;resizable=1;rotatable=1;deletable=1;editable=1;locked=0;connectable=1;container=0;" vertex="1" parent="4ou6pQqf3mK2EiXASReZ-273">
          <mxGeometry x="146.5" y="1.5" width="6.5" height="12" as="geometry" />
        </mxCell>
        <mxCell id="4ou6pQqf3mK2EiXASReZ-195" value="" style="rounded=1;whiteSpace=wrap;html=1;strokeColor=none;fillColor=#000000;strokeWidth=1;movable=1;resizable=1;rotatable=1;deletable=1;editable=1;locked=0;connectable=1;container=0;" vertex="1" parent="4ou6pQqf3mK2EiXASReZ-273">
          <mxGeometry x="154" y="1.5" width="6.5" height="12" as="geometry" />
        </mxCell>
        <mxCell id="4ou6pQqf3mK2EiXASReZ-196" value="" style="rounded=1;whiteSpace=wrap;html=1;strokeColor=none;fillColor=#000000;strokeWidth=1;movable=1;resizable=1;rotatable=1;deletable=1;editable=1;locked=0;connectable=1;container=0;" vertex="1" parent="4ou6pQqf3mK2EiXASReZ-273">
          <mxGeometry x="161.5" y="1.5" width="6.5" height="12" as="geometry" />
        </mxCell>
        <mxCell id="4ou6pQqf3mK2EiXASReZ-197" value="" style="rounded=1;whiteSpace=wrap;html=1;strokeColor=none;fillColor=#000000;strokeWidth=1;movable=1;resizable=1;rotatable=1;deletable=1;editable=1;locked=0;connectable=1;container=0;" vertex="1" parent="4ou6pQqf3mK2EiXASReZ-273">
          <mxGeometry x="169" y="1.5" width="6.5" height="12" as="geometry" />
        </mxCell>
        <mxCell id="4ou6pQqf3mK2EiXASReZ-198" value="" style="rounded=1;whiteSpace=wrap;html=1;strokeColor=none;fillColor=#000000;strokeWidth=1;movable=1;resizable=1;rotatable=1;deletable=1;editable=1;locked=0;connectable=1;container=0;" vertex="1" parent="4ou6pQqf3mK2EiXASReZ-273">
          <mxGeometry x="139" y="1.5" width="6.5" height="12" as="geometry" />
        </mxCell>
        <mxCell id="4ou6pQqf3mK2EiXASReZ-199" value="" style="rounded=1;whiteSpace=wrap;html=1;strokeColor=none;fillColor=#000000;strokeWidth=1;movable=1;resizable=1;rotatable=1;deletable=1;editable=1;locked=0;connectable=1;container=0;" vertex="1" parent="4ou6pQqf3mK2EiXASReZ-273">
          <mxGeometry x="176.5" y="1.5" width="6.5" height="12" as="geometry" />
        </mxCell>
        <mxCell id="4ou6pQqf3mK2EiXASReZ-200" value="" style="rounded=1;whiteSpace=wrap;html=1;strokeColor=none;fillColor=#000000;strokeWidth=1;movable=1;resizable=1;rotatable=1;deletable=1;editable=1;locked=0;connectable=1;container=0;" vertex="1" parent="4ou6pQqf3mK2EiXASReZ-273">
          <mxGeometry x="184" y="1.5" width="6.5" height="12" as="geometry" />
        </mxCell>
        <mxCell id="4ou6pQqf3mK2EiXASReZ-201" value="" style="rounded=1;whiteSpace=wrap;html=1;strokeColor=none;fillColor=#000000;strokeWidth=1;movable=1;resizable=1;rotatable=1;deletable=1;editable=1;locked=0;connectable=1;container=0;" vertex="1" parent="4ou6pQqf3mK2EiXASReZ-273">
          <mxGeometry x="191.5" y="1.5" width="6.5" height="12" as="geometry" />
        </mxCell>
        <mxCell id="4ou6pQqf3mK2EiXASReZ-202" value="" style="rounded=1;whiteSpace=wrap;html=1;strokeColor=none;fillColor=#000000;strokeWidth=1;movable=1;resizable=1;rotatable=1;deletable=1;editable=1;locked=0;connectable=1;container=0;" vertex="1" parent="4ou6pQqf3mK2EiXASReZ-273">
          <mxGeometry x="199" y="1.5" width="6.5" height="12" as="geometry" />
        </mxCell>
        <mxCell id="4ou6pQqf3mK2EiXASReZ-203" value="" style="rounded=1;whiteSpace=wrap;html=1;strokeColor=none;fillColor=#000000;strokeWidth=1;movable=1;resizable=1;rotatable=1;deletable=1;editable=1;locked=0;connectable=1;container=0;" vertex="1" parent="4ou6pQqf3mK2EiXASReZ-273">
          <mxGeometry x="206.5" y="1.5" width="6.5" height="12" as="geometry" />
        </mxCell>
        <mxCell id="4ou6pQqf3mK2EiXASReZ-204" value="" style="rounded=1;whiteSpace=wrap;html=1;strokeColor=none;fillColor=#000000;strokeWidth=1;movable=1;resizable=1;rotatable=1;deletable=1;editable=1;locked=0;connectable=1;container=0;" vertex="1" parent="4ou6pQqf3mK2EiXASReZ-273">
          <mxGeometry x="214" y="1.5" width="6.5" height="12" as="geometry" />
        </mxCell>
        <mxCell id="4ou6pQqf3mK2EiXASReZ-205" value="" style="rounded=1;whiteSpace=wrap;html=1;strokeColor=none;fillColor=#000000;strokeWidth=1;movable=1;resizable=1;rotatable=1;deletable=1;editable=1;locked=0;connectable=1;container=0;" vertex="1" parent="4ou6pQqf3mK2EiXASReZ-273">
          <mxGeometry x="221.5" y="1.5" width="6.5" height="12" as="geometry" />
        </mxCell>
        <mxCell id="4ou6pQqf3mK2EiXASReZ-206" value="" style="rounded=1;whiteSpace=wrap;html=1;strokeColor=none;fillColor=#000000;strokeWidth=1;movable=1;resizable=1;rotatable=1;deletable=1;editable=1;locked=0;connectable=1;container=0;" vertex="1" parent="4ou6pQqf3mK2EiXASReZ-273">
          <mxGeometry x="229" y="1.5" width="6.5" height="12" as="geometry" />
        </mxCell>
        <mxCell id="4ou6pQqf3mK2EiXASReZ-207" value="" style="rounded=1;whiteSpace=wrap;html=1;strokeColor=none;fillColor=#000000;strokeWidth=1;movable=1;resizable=1;rotatable=1;deletable=1;editable=1;locked=0;connectable=1;container=0;" vertex="1" parent="4ou6pQqf3mK2EiXASReZ-273">
          <mxGeometry x="236.5" y="1.5" width="6.5" height="12" as="geometry" />
        </mxCell>
        <mxCell id="4ou6pQqf3mK2EiXASReZ-223" value="" style="rounded=1;whiteSpace=wrap;html=1;strokeColor=none;fillColor=#000000;strokeWidth=1;movable=1;resizable=1;rotatable=1;deletable=1;editable=1;locked=0;connectable=1;container=0;" vertex="1" parent="4ou6pQqf3mK2EiXASReZ-273">
          <mxGeometry x="244" y="1.5" width="6.5" height="12" as="geometry" />
        </mxCell>
        <mxCell id="4ou6pQqf3mK2EiXASReZ-224" value="" style="rounded=1;whiteSpace=wrap;html=1;strokeColor=none;fillColor=#000000;strokeWidth=1;movable=1;resizable=1;rotatable=1;deletable=1;editable=1;locked=0;connectable=1;container=0;" vertex="1" parent="4ou6pQqf3mK2EiXASReZ-273">
          <mxGeometry x="259" y="1.5" width="6.5" height="12" as="geometry" />
        </mxCell>
        <mxCell id="4ou6pQqf3mK2EiXASReZ-225" value="" style="rounded=1;whiteSpace=wrap;html=1;strokeColor=none;fillColor=#000000;strokeWidth=1;movable=1;resizable=1;rotatable=1;deletable=1;editable=1;locked=0;connectable=1;container=0;" vertex="1" parent="4ou6pQqf3mK2EiXASReZ-273">
          <mxGeometry x="266.5" y="1.5" width="6.5" height="12" as="geometry" />
        </mxCell>
        <mxCell id="4ou6pQqf3mK2EiXASReZ-226" value="" style="rounded=1;whiteSpace=wrap;html=1;strokeColor=none;fillColor=#000000;strokeWidth=1;movable=1;resizable=1;rotatable=1;deletable=1;editable=1;locked=0;connectable=1;container=0;" vertex="1" parent="4ou6pQqf3mK2EiXASReZ-273">
          <mxGeometry x="274" y="1.5" width="6.5" height="12" as="geometry" />
        </mxCell>
        <mxCell id="4ou6pQqf3mK2EiXASReZ-227" value="" style="rounded=1;whiteSpace=wrap;html=1;strokeColor=none;fillColor=#000000;strokeWidth=1;movable=1;resizable=1;rotatable=1;deletable=1;editable=1;locked=0;connectable=1;container=0;" vertex="1" parent="4ou6pQqf3mK2EiXASReZ-273">
          <mxGeometry x="281.5" y="1.5" width="6.5" height="12" as="geometry" />
        </mxCell>
        <mxCell id="4ou6pQqf3mK2EiXASReZ-228" value="" style="rounded=1;whiteSpace=wrap;html=1;strokeColor=none;fillColor=#000000;strokeWidth=1;movable=1;resizable=1;rotatable=1;deletable=1;editable=1;locked=0;connectable=1;container=0;" vertex="1" parent="4ou6pQqf3mK2EiXASReZ-273">
          <mxGeometry x="251.5" y="1.5" width="6.5" height="12" as="geometry" />
        </mxCell>
        <mxCell id="4ou6pQqf3mK2EiXASReZ-229" value="" style="rounded=1;whiteSpace=wrap;html=1;strokeColor=none;fillColor=#000000;strokeWidth=1;movable=1;resizable=1;rotatable=1;deletable=1;editable=1;locked=0;connectable=1;container=0;" vertex="1" parent="4ou6pQqf3mK2EiXASReZ-273">
          <mxGeometry x="289" y="1.5" width="6.5" height="12" as="geometry" />
        </mxCell>
        <mxCell id="4ou6pQqf3mK2EiXASReZ-230" value="" style="rounded=1;whiteSpace=wrap;html=1;strokeColor=none;fillColor=#000000;strokeWidth=1;movable=1;resizable=1;rotatable=1;deletable=1;editable=1;locked=0;connectable=1;container=0;" vertex="1" parent="4ou6pQqf3mK2EiXASReZ-273">
          <mxGeometry x="296.5" y="1.5" width="6.5" height="12" as="geometry" />
        </mxCell>
        <mxCell id="4ou6pQqf3mK2EiXASReZ-231" value="" style="rounded=1;whiteSpace=wrap;html=1;strokeColor=none;fillColor=#000000;strokeWidth=1;movable=1;resizable=1;rotatable=1;deletable=1;editable=1;locked=0;connectable=1;container=0;" vertex="1" parent="4ou6pQqf3mK2EiXASReZ-273">
          <mxGeometry x="304" y="1.5" width="6.5" height="12" as="geometry" />
        </mxCell>
        <mxCell id="4ou6pQqf3mK2EiXASReZ-232" value="" style="rounded=1;whiteSpace=wrap;html=1;strokeColor=none;fillColor=#000000;strokeWidth=1;movable=1;resizable=1;rotatable=1;deletable=1;editable=1;locked=0;connectable=1;container=0;" vertex="1" parent="4ou6pQqf3mK2EiXASReZ-273">
          <mxGeometry x="311.5" y="1.5" width="6.5" height="12" as="geometry" />
        </mxCell>
        <mxCell id="4ou6pQqf3mK2EiXASReZ-233" value="" style="rounded=1;whiteSpace=wrap;html=1;strokeColor=none;fillColor=#000000;strokeWidth=1;movable=1;resizable=1;rotatable=1;deletable=1;editable=1;locked=0;connectable=1;container=0;" vertex="1" parent="4ou6pQqf3mK2EiXASReZ-273">
          <mxGeometry x="319" y="1.5" width="6.5" height="12" as="geometry" />
        </mxCell>
        <mxCell id="4ou6pQqf3mK2EiXASReZ-234" value="" style="rounded=1;whiteSpace=wrap;html=1;strokeColor=none;fillColor=#000000;strokeWidth=1;movable=1;resizable=1;rotatable=1;deletable=1;editable=1;locked=0;connectable=1;container=0;" vertex="1" parent="4ou6pQqf3mK2EiXASReZ-273">
          <mxGeometry x="326.5" y="1.5" width="6.5" height="12" as="geometry" />
        </mxCell>
        <mxCell id="4ou6pQqf3mK2EiXASReZ-235" value="" style="rounded=1;whiteSpace=wrap;html=1;strokeColor=none;fillColor=#000000;strokeWidth=1;movable=1;resizable=1;rotatable=1;deletable=1;editable=1;locked=0;connectable=1;container=0;" vertex="1" parent="4ou6pQqf3mK2EiXASReZ-273">
          <mxGeometry x="334" y="1.5" width="6.5" height="12" as="geometry" />
        </mxCell>
        <mxCell id="4ou6pQqf3mK2EiXASReZ-236" value="" style="rounded=1;whiteSpace=wrap;html=1;strokeColor=none;fillColor=#000000;strokeWidth=1;movable=1;resizable=1;rotatable=1;deletable=1;editable=1;locked=0;connectable=1;container=0;" vertex="1" parent="4ou6pQqf3mK2EiXASReZ-273">
          <mxGeometry x="341.5" y="1.5" width="6.5" height="12" as="geometry" />
        </mxCell>
        <mxCell id="4ou6pQqf3mK2EiXASReZ-238" value="" style="rounded=1;whiteSpace=wrap;html=1;strokeColor=#aaaaaa;fillColor=#222222;strokeWidth=0.2;movable=1;resizable=1;rotatable=1;deletable=1;editable=1;locked=0;connectable=1;container=0;align=center;verticalAlign=middle;fontFamily=Helvetica;fontSize=12;fontColor=default;gradientColor=#111111;gradientDirection=radial;arcSize=10;" vertex="1" parent="4ou6pQqf3mK2EiXASReZ-273">
          <mxGeometry x="396.3" y="1.5" width="66" height="12" as="geometry" />
        </mxCell>
        <mxCell id="4ou6pQqf3mK2EiXASReZ-240" value="" style="ellipse;whiteSpace=wrap;html=1;strokeColor=#000000;fillColor=#60a917;fontColor=#ffffff;movable=1;resizable=1;rotatable=1;deletable=1;editable=1;locked=0;connectable=1;container=0;strokeWidth=0.1;" vertex="1" parent="4ou6pQqf3mK2EiXASReZ-273">
          <mxGeometry x="410" y="8" width="4" height="4" as="geometry" />
        </mxCell>
        <mxCell id="4ou6pQqf3mK2EiXASReZ-243" value="" style="strokeWidth=0.1;html=1;shape=mxgraph.flowchart.database;whiteSpace=wrap;strokeColor=default;fillColor=none;movable=1;resizable=1;rotatable=1;deletable=1;editable=1;locked=0;connectable=1;container=0;" vertex="1" parent="4ou6pQqf3mK2EiXASReZ-273">
          <mxGeometry x="428" y="3" width="4" height="4" as="geometry" />
        </mxCell>
        <mxCell id="4ou6pQqf3mK2EiXASReZ-244" value="" style="sketch=0;pointerEvents=1;shadow=0;dashed=0;html=1;strokeColor=none;fillColor=#FFFFFF;labelPosition=center;verticalLabelPosition=bottom;verticalAlign=top;align=center;outlineConnect=0;shape=mxgraph.vvd.infrastructure;movable=1;resizable=1;rotatable=1;deletable=1;editable=1;locked=0;connectable=1;container=0;" vertex="1" parent="4ou6pQqf3mK2EiXASReZ-273">
          <mxGeometry x="416" y="3" width="4" height="4" as="geometry" />
        </mxCell>
        <mxCell id="4ou6pQqf3mK2EiXASReZ-245" value="" style="triangle;whiteSpace=wrap;html=1;rotation=-90;fillColor=none;strokeWidth=0.1;movable=1;resizable=1;rotatable=1;deletable=1;editable=1;locked=0;connectable=1;container=0;" vertex="1" parent="4ou6pQqf3mK2EiXASReZ-273">
          <mxGeometry x="410" y="3" width="4" height="4" as="geometry" />
        </mxCell>
        <mxCell id="4ou6pQqf3mK2EiXASReZ-246" value="" style="sketch=0;html=1;strokeColor=default;shadow=0;fillColor=none;verticalAlign=top;labelPosition=center;verticalLabelPosition=bottom;shape=mxgraph.gcp2.a7_power;gradientColor=none;strokeWidth=0.1;movable=1;resizable=1;rotatable=1;deletable=1;editable=1;locked=0;connectable=1;container=0;" vertex="1" parent="4ou6pQqf3mK2EiXASReZ-273">
          <mxGeometry x="434" y="3" width="4" height="4" as="geometry" />
        </mxCell>
        <mxCell id="4ou6pQqf3mK2EiXASReZ-247" value="" style="ellipse;whiteSpace=wrap;html=1;strokeColor=#000000;fillColor=#60a917;fontColor=#ffffff;movable=1;resizable=1;rotatable=1;deletable=1;editable=1;locked=0;connectable=1;container=0;strokeWidth=0.1;" vertex="1" parent="4ou6pQqf3mK2EiXASReZ-273">
          <mxGeometry x="416" y="8" width="4" height="4" as="geometry" />
        </mxCell>
        <mxCell id="4ou6pQqf3mK2EiXASReZ-248" value="" style="ellipse;whiteSpace=wrap;html=1;strokeColor=#000000;fillColor=#60a917;fontColor=#ffffff;movable=1;resizable=1;rotatable=1;deletable=1;editable=1;locked=0;connectable=1;container=0;strokeWidth=0.1;" vertex="1" parent="4ou6pQqf3mK2EiXASReZ-273">
          <mxGeometry x="422" y="8" width="4" height="4" as="geometry" />
        </mxCell>
        <mxCell id="4ou6pQqf3mK2EiXASReZ-249" value="" style="ellipse;whiteSpace=wrap;html=1;strokeColor=#000000;fillColor=#60a917;fontColor=#ffffff;movable=1;resizable=1;rotatable=1;deletable=1;editable=1;locked=0;connectable=1;container=0;strokeWidth=0.1;" vertex="1" parent="4ou6pQqf3mK2EiXASReZ-273">
          <mxGeometry x="428" y="8" width="4" height="4" as="geometry" />
        </mxCell>
        <mxCell id="4ou6pQqf3mK2EiXASReZ-250" value="" style="ellipse;whiteSpace=wrap;html=1;strokeColor=#000000;fillColor=#60a917;fontColor=#ffffff;movable=1;resizable=1;rotatable=1;deletable=1;editable=1;locked=0;connectable=1;container=0;strokeWidth=0.1;" vertex="1" parent="4ou6pQqf3mK2EiXASReZ-273">
          <mxGeometry x="434" y="8" width="4" height="4" as="geometry" />
        </mxCell>
        <mxCell id="4ou6pQqf3mK2EiXASReZ-251" value="" style="sketch=0;pointerEvents=1;shadow=0;dashed=0;html=1;strokeColor=none;fillColor=#FFFFFF;labelPosition=center;verticalLabelPosition=bottom;verticalAlign=top;align=center;outlineConnect=0;shape=mxgraph.vvd.infrastructure;movable=1;resizable=1;rotatable=1;deletable=1;editable=1;locked=0;connectable=1;container=0;" vertex="1" parent="4ou6pQqf3mK2EiXASReZ-273">
          <mxGeometry x="422" y="3" width="4" height="4" as="geometry" />
        </mxCell>
        <mxCell id="4ou6pQqf3mK2EiXASReZ-262" value="" style="group;rounded=1;arcSize=50;strokeColor=#111111;strokeWidth=2;" vertex="1" connectable="0" parent="4ou6pQqf3mK2EiXASReZ-273">
          <mxGeometry x="452" y="4.000434782608693" width="7" height="7" as="geometry" />
        </mxCell>
        <mxCell id="4ou6pQqf3mK2EiXASReZ-263" value="" style="ellipse;whiteSpace=wrap;html=1;strokeColor=#000000;fillColor=#6F0000;fontColor=#ffffff;movable=1;resizable=1;rotatable=1;deletable=1;editable=1;locked=0;connectable=1;container=0;strokeWidth=0.1;" vertex="1" parent="4ou6pQqf3mK2EiXASReZ-262">
          <mxGeometry width="7" height="7" as="geometry" />
        </mxCell>
        <mxCell id="4ou6pQqf3mK2EiXASReZ-264" value="" style="sketch=0;html=1;strokeColor=#470000;shadow=0;fillColor=none;verticalAlign=top;labelPosition=center;verticalLabelPosition=bottom;shape=mxgraph.gcp2.a7_power;gradientColor=none;strokeWidth=0.1;movable=1;resizable=1;rotatable=1;deletable=1;editable=1;locked=0;connectable=1;container=0;" vertex="1" parent="4ou6pQqf3mK2EiXASReZ-262">
          <mxGeometry x="1" y="0.9495652173913065" width="5" height="5" as="geometry" />
        </mxCell>
        <mxCell id="4ou6pQqf3mK2EiXASReZ-265" value="" style="group" vertex="1" connectable="0" parent="4ou6pQqf3mK2EiXASReZ-273">
          <mxGeometry x="445" y="5.000434782608693" width="4" height="4" as="geometry" />
        </mxCell>
        <mxCell id="4ou6pQqf3mK2EiXASReZ-266" value="" style="group;rounded=1;arcSize=50;strokeColor=#111111;strokeWidth=2;container=0;" vertex="1" connectable="0" parent="4ou6pQqf3mK2EiXASReZ-265">
          <mxGeometry width="4" height="4" as="geometry" />
        </mxCell>
        <mxCell id="4ou6pQqf3mK2EiXASReZ-267" value="" style="ellipse;whiteSpace=wrap;html=1;strokeColor=#000000;fillColor=#6F0000;fontColor=#ffffff;movable=1;resizable=1;rotatable=1;deletable=1;editable=1;locked=0;connectable=1;container=0;strokeWidth=0.1;" vertex="1" parent="4ou6pQqf3mK2EiXASReZ-265">
          <mxGeometry width="4" height="4" as="geometry" />
        </mxCell>
        <mxCell id="4ou6pQqf3mK2EiXASReZ-268" value="" style="group" vertex="1" connectable="0" parent="4ou6pQqf3mK2EiXASReZ-273">
          <mxGeometry x="403" y="8.500434782608693" width="3" height="3" as="geometry" />
        </mxCell>
        <mxCell id="4ou6pQqf3mK2EiXASReZ-269" value="" style="group;rounded=1;arcSize=50;strokeColor=#111111;strokeWidth=2;container=0;" vertex="1" connectable="0" parent="4ou6pQqf3mK2EiXASReZ-268">
          <mxGeometry width="3" height="3" as="geometry" />
        </mxCell>
        <mxCell id="4ou6pQqf3mK2EiXASReZ-270" value="" style="ellipse;whiteSpace=wrap;html=1;strokeColor=#000000;fillColor=#010101;fontColor=#ffffff;movable=1;resizable=1;rotatable=1;deletable=1;editable=1;locked=0;connectable=1;container=0;strokeWidth=0.1;" vertex="1" parent="4ou6pQqf3mK2EiXASReZ-268">
          <mxGeometry width="3" height="3" as="geometry" />
        </mxCell>
        <mxCell id="4ou6pQqf3mK2EiXASReZ-271" value="UID" style="text;html=1;align=center;verticalAlign=middle;whiteSpace=wrap;rounded=0;fontSize=2;" vertex="1" parent="4ou6pQqf3mK2EiXASReZ-273">
          <mxGeometry x="400" y="3.5" width="9" height="4" as="geometry" />
        </mxCell>
        <mxCell id="4ou6pQqf3mK2EiXASReZ-272" value="RESET" style="text;html=1;align=center;verticalAlign=middle;whiteSpace=wrap;rounded=0;fontSize=2;" vertex="1" parent="4ou6pQqf3mK2EiXASReZ-273">
          <mxGeometry x="442.5" y="9.000000000000004" width="9" height="4" as="geometry" />
        </mxCell>
      </root>
    </mxGraphModel>
  </diagram>
</mxfile>
